<svg width="141" height="140" viewBox="0 0 141 140" fill="none" xmlns="http://www.w3.org/2000/svg">
<path fill-rule="evenodd" clip-rule="evenodd" d="M57.8402 130.6L55.3702 130.03C53.8402 129.67 52.0302 129.77 51.6102 131.6C51.4851 132.111 51.5604 132.651 51.8208 133.109C52.0811 133.566 52.5067 133.906 53.0102 134.06C52.5675 134.06 52.138 134.211 51.7939 134.49C51.4498 134.769 51.2119 135.157 51.1202 135.59C50.7702 137.11 52.0302 137.94 53.4002 138.26L55.9302 138.84L57.8402 130.57V130.6ZM55.1602 137.73L53.6902 137.4C52.8102 137.19 51.9702 136.75 52.2102 135.74C52.4502 134.73 53.4802 134.61 54.4002 134.83L55.7502 135.14L55.1602 137.73ZM55.9602 134.23L54.2802 133.84C53.2802 133.61 52.3902 133.03 52.6502 131.84C52.9102 130.65 54.0302 130.65 54.9902 130.84L56.6402 131.22L55.9602 134.23Z" fill="#374530"/>
<path fill-rule="evenodd" clip-rule="evenodd" d="M49.32 128.19L44.14 126.18L43.8 127.06L48.04 128.69L46.95 131.51L43.18 130.06L42.84 130.93L46.62 132.39L45.66 134.87L41.62 133.31L41.28 134.19L46.26 136.11L49.32 128.19Z" fill="#374530"/>
<path fill-rule="evenodd" clip-rule="evenodd" d="M41.63 124.77L37.38 122.34L36.92 123.15L40.29 125.08L36.54 131.64L37.41 132.14L41.63 124.77Z" fill="#374530"/>
<path fill-rule="evenodd" clip-rule="evenodd" d="M36.1302 121.64L35.2401 120.93L33.2401 122.02L29.9102 119.39L30.5302 117.21L29.6002 116.49L27.1602 125.39L27.9102 125.98L36.1101 121.64H36.1302ZM29.6501 120.36L32.3601 122.51L28.3602 124.69L29.6501 120.36Z" fill="#374530"/>
<path fill-rule="evenodd" clip-rule="evenodd" d="M23.3101 109.93L22.6801 109.14L19.6901 111.5L17.2401 108.39L16.5001 108.97L18.9501 112.08L16.7501 113.82L14.1101 110.47L13.3801 111.06L16.6401 115.19L23.3101 109.93Z" fill="#374530"/>
<path fill-rule="evenodd" clip-rule="evenodd" d="M18.5702 103.52L16.1402 99.27L15.3302 99.74L17.2502 103.11L10.6902 106.86L11.1902 107.73L18.5702 103.52Z" fill="#374530"/>
<path fill-rule="evenodd" clip-rule="evenodd" d="M13.7102 93.42C13.397 92.595 12.8462 91.8815 12.1274 91.3697C11.4085 90.8579 10.554 90.5708 9.672 90.5448C8.78997 90.5188 7.92005 90.7551 7.17232 91.2236C6.42459 91.6922 5.83264 92.372 5.47141 93.1771C5.11017 93.9822 4.99588 94.8763 5.14298 95.7464C5.29008 96.6165 5.69196 97.4233 6.29778 98.0649C6.9036 98.7065 7.68612 99.154 8.54633 99.3507C9.40653 99.5474 10.3058 99.4845 11.1302 99.17C11.6887 98.9777 12.2018 98.673 12.6379 98.2746C13.074 97.8762 13.4237 97.3926 13.6655 96.8537C13.9073 96.3149 14.036 95.7321 14.0437 95.1415C14.0514 94.5509 13.9379 93.965 13.7102 93.42ZM12.8302 93.76C13.1155 94.4056 13.2008 95.1218 13.0749 95.8163C12.9491 96.5108 12.618 97.1516 12.1243 97.6561C11.6306 98.1605 10.9971 98.5053 10.3054 98.6461C9.61381 98.7868 8.89588 98.717 8.24433 98.4456C7.59277 98.1743 7.03752 97.7138 6.65027 97.1238C6.26302 96.5337 6.06155 95.8411 6.07187 95.1353C6.08219 94.4296 6.30383 93.7432 6.70818 93.1647C7.11252 92.5862 7.681 92.1422 8.34021 91.89C8.75623 91.7053 9.20552 91.6074 9.66065 91.6021C10.1158 91.5968 10.5672 91.6844 10.9874 91.8594C11.4076 92.0344 11.7877 92.2931 12.1045 92.6199C12.4214 92.9467 12.6683 93.3346 12.8302 93.76Z" fill="#374530"/>
<path fill-rule="evenodd" clip-rule="evenodd" d="M11.0801 86.56L10.8601 85.56L7.1401 86.42L6.85011 85.15L10.0501 82.06L9.7801 80.85L6.5001 84.08C6.35185 83.5214 5.98971 83.0435 5.49195 82.7497C4.9942 82.4559 4.40083 82.3698 3.8401 82.51C1.8401 82.97 1.95011 84.72 2.32011 86.32L2.80011 88.44L11.0801 86.55V86.56ZM3.49011 87.26L3.1701 85.88C2.9501 84.88 2.8901 83.88 4.0801 83.57C5.4501 83.26 5.7801 84.67 6.0301 85.76L6.2301 86.64L3.49011 87.26Z" fill="#374530"/>
<path fill-rule="evenodd" clip-rule="evenodd" d="M9.47011 79.07L9.38011 77.94L7.2301 77.23L6.88011 73L8.88011 72L8.7901 70.83L0.610107 75.12L0.690109 76.06L9.46011 79.06L9.47011 79.07ZM6.00011 73.46L6.28011 76.92L2.00011 75.5L6.00011 73.46Z" fill="#374530"/>
<path d="M0.258707 59.9872L0.156006 60.7693L12.036 62.3293L12.1387 61.5472L0.258707 59.9872Z" fill="#374530"/>
<path fill-rule="evenodd" clip-rule="evenodd" d="M11.91 51.34L12.82 48.97C13.39 47.51 13.55 45.7 11.82 45.03C11.3346 44.8365 10.7943 44.8318 10.3056 45.0169C9.81698 45.202 9.41536 45.5634 9.17999 46.03C9.24106 45.5926 9.15029 45.1475 8.92281 44.7689C8.69532 44.3904 8.34488 44.1013 7.92999 43.95C6.46999 43.39 5.46999 44.52 4.92999 45.83L4 48.25L11.92 51.31L11.91 51.34ZM5.22 47.67L5.75999 46.27C6.08999 45.42 6.65 44.66 7.62 45.04C8.59 45.42 8.55001 46.45 8.21001 47.34L7.71001 48.63L5.22 47.63V47.67ZM8.58 48.97L9.2 47.36C9.57 46.36 10.27 45.6 11.38 46.02C12.49 46.44 12.38 47.55 12.02 48.47L11.4 50.06L8.58 48.97Z" fill="#374530"/>
<path fill-rule="evenodd" clip-rule="evenodd" d="M17.42 39.81C17.8613 39.0455 18.0659 38.1673 18.0077 37.2865C17.9496 36.4057 17.6314 35.562 17.0934 34.8622C16.5554 34.1623 15.8219 33.6379 14.9857 33.3552C14.1495 33.0725 13.2482 33.0443 12.3959 33.2742C11.5436 33.5041 10.7788 33.9817 10.1981 34.6465C9.61751 35.3114 9.24721 36.1336 9.13415 37.0091C9.02109 37.8845 9.17035 38.7738 9.56303 39.5644C9.95571 40.3549 10.5741 41.0112 11.34 41.45C11.8417 41.7615 12.402 41.9666 12.9861 42.0525C13.5703 42.1385 14.1659 42.1035 14.736 41.9497C15.3061 41.7959 15.8385 41.5267 16.3002 41.1586C16.7619 40.7905 17.1431 40.3315 17.42 39.81ZM16.61 39.35C16.2891 39.9781 15.7874 40.4956 15.1696 40.8358C14.5518 41.1761 13.8463 41.3235 13.1439 41.259C12.4416 41.1945 11.7747 40.9211 11.2292 40.4741C10.6836 40.027 10.2845 39.4268 10.0833 38.7508C9.88213 38.0748 9.88805 37.3541 10.1003 36.6815C10.3126 36.0089 10.7214 35.4153 11.2742 34.9772C11.8269 34.5391 12.4982 34.2767 13.2015 34.2237C13.9049 34.1708 14.6079 34.3297 15.22 34.68C15.6263 34.8866 15.9864 35.1737 16.2782 35.5238C16.57 35.8739 16.7876 36.2798 16.9176 36.7166C17.0477 37.1535 17.0874 37.6122 17.0346 38.0649C16.9817 38.5177 16.8372 38.9549 16.61 39.35Z" fill="#374530"/>
<path fill-rule="evenodd" clip-rule="evenodd" d="M18.1701 23.84L14.0601 29.03L14.8001 29.61L16.5401 27.41L22.4701 32.1L23.0901 31.31L17.1601 26.62L18.9101 24.42L18.1701 23.84Z" fill="#374530"/>
<path fill-rule="evenodd" clip-rule="evenodd" d="M25.1101 28.81L25.9401 28.03L25.1501 25.91L28.2501 23L30.3 23.93L31.1601 23.12L22.7101 19.41L22.0201 20.06L25.1101 28.81ZM27.3201 22.58L24.8001 25L23.2201 20.75L27.3001 22.64L27.3201 22.58ZM20.5401 20.58L21.2001 19.95L21.0401 18.42L22.5701 18.67L23.2801 18L21.1201 17.66L20.3201 18.41L20.5401 20.58Z" fill="#374530"/>
<path fill-rule="evenodd" clip-rule="evenodd" d="M33.0901 21.64L33.9101 21.05L29.7801 15.33L29.8001 15.31L37.9201 18.16L38.9501 17.41L33.9801 10.53L33.1601 11.12L37.2901 16.84L37.2701 16.85L29.1501 14.01L28.1201 14.75L33.0901 21.64Z" fill="#374530"/>
<path d="M39.0878 7.94622L38.1902 8.4093L42.0828 15.9543L42.9804 15.4913L39.0878 7.94622Z" fill="#374530"/>
<path fill-rule="evenodd" clip-rule="evenodd" d="M49.7802 4.72003C49.2832 4.44182 48.7289 4.28177 48.1601 4.25229C47.5913 4.22281 47.0233 4.32469 46.5002 4.55003C45.4265 4.99855 44.57 5.84809 44.1128 6.91812C43.6555 7.98815 43.6335 9.1943 44.0515 10.2803C44.4695 11.3662 45.2945 12.2464 46.3511 12.7337C47.4078 13.2211 48.6128 13.2771 49.7102 12.89C50.2962 12.6993 50.8268 12.3681 51.2555 11.9254C51.6843 11.4827 51.9983 10.9419 52.1702 10.35L51.2402 10.02C51.1096 10.4779 50.8719 10.898 50.5467 11.2458C50.2215 11.5936 49.8182 11.859 49.3702 12.02C48.9494 12.1742 48.5016 12.2411 48.0541 12.2165C47.6066 12.192 47.1687 12.0765 46.7673 11.8772C46.3659 11.6779 46.0093 11.3989 45.7192 11.0573C45.4292 10.7156 45.2117 10.3185 45.0802 9.89003C44.903 9.48234 44.8081 9.04372 44.8007 8.59927C44.7933 8.15483 44.8736 7.71329 45.0371 7.29994C45.2006 6.88659 45.444 6.50955 45.7534 6.1904C46.0628 5.87125 46.4321 5.61626 46.8402 5.44003C47.2201 5.28657 47.6308 5.2247 48.0391 5.25944C48.4473 5.29419 48.8417 5.42457 49.1902 5.64003L49.7802 4.72003Z" fill="#374530"/>
<path fill-rule="evenodd" clip-rule="evenodd" d="M54.28 11L55.4 10.8L55.89 8.57999L60.07 7.82999L61.29 9.72998L62.45 9.51999L57.39 1.79999L56.46 1.96999L54.28 10.97V11ZM59.53 6.99998L56.12 7.60999L57.12 3.18999L59.53 6.99998Z" fill="#374530"/>
<path d="M71.7284 0.0963659L71.3201 12.0894L72.1096 12.1163L72.5179 0.123247L71.7284 0.0963659Z" fill="#374530"/>
<path fill-rule="evenodd" clip-rule="evenodd" d="M82.1101 10.15L84.5801 10.72C86.1101 11.07 87.9201 10.97 88.3401 9.15001C88.4631 8.63754 88.3869 8.0975 88.1271 7.63901C87.8672 7.18051 87.443 6.83775 86.9401 6.68001C87.3808 6.66754 87.8051 6.5098 88.1469 6.23129C88.4887 5.95279 88.7289 5.56914 88.8301 5.14001C89.1701 3.62001 87.9101 2.79002 86.5501 2.47002L84.0201 1.89001L82.1101 10.17V10.15ZM84.7901 3.01001L86.2501 3.35002C87.1401 3.55002 87.9801 3.99001 87.7401 5.01001C87.5001 6.03001 86.4701 6.13001 85.5501 5.92001L84.2001 5.61002L84.7901 3.01001ZM83.9901 6.52002L85.6701 6.91002C86.6701 7.13002 87.5601 7.71002 87.3001 8.91002C87.0401 10.11 85.9201 10.11 84.9601 9.91002L83.3101 9.52002L83.9901 6.52002Z" fill="#374530"/>
<path fill-rule="evenodd" clip-rule="evenodd" d="M90.6702 12.44L95.8502 14.44L96.1902 13.57L91.9502 11.93L93.0302 9.11002L96.8001 10.56L97.1402 9.69002L93.3701 8.24002L94.3301 5.75002L98.3701 7.31001L98.7101 6.44002L93.7302 4.52002L90.6702 12.44Z" fill="#374530"/>
<path fill-rule="evenodd" clip-rule="evenodd" d="M98.4102 15.74L102.66 18.17L103.12 17.36L99.7502 15.43L103.5 8.87L102.63 8.37L98.4102 15.74Z" fill="#374530"/>
<path fill-rule="evenodd" clip-rule="evenodd" d="M104 18.77L104.89 19.48L106.89 18.38L110.21 21.02L109.6 23.19L110.52 23.92L112.96 15.02L112.21 14.43L104.01 18.77H104ZM110.48 20.05L107.77 17.9L111.77 15.72L110.48 20.05Z" fill="#374530"/>
<path fill-rule="evenodd" clip-rule="evenodd" d="M116.95 30.33L117.57 31.13L120.57 28.76L123.02 31.87L123.75 31.29L121.3 28.18L123.5 26.44L126.14 29.79L126.88 29.21L123.62 25.07L116.95 30.33Z" fill="#374530"/>
<path fill-rule="evenodd" clip-rule="evenodd" d="M121.69 36.73L124.31 40.87L125.1 40.37L123.02 37.08L129.42 33.05L128.88 32.2L121.69 36.73Z" fill="#374530"/>
<path fill-rule="evenodd" clip-rule="evenodd" d="M126.76 46.72C127.072 47.5483 127.624 48.2652 128.344 48.7798C129.064 49.2945 129.921 49.5837 130.806 49.6108C131.691 49.6378 132.564 49.4016 133.314 48.9319C134.064 48.4623 134.659 47.7804 135.021 46.9727C135.383 46.1651 135.498 45.268 135.35 44.3952C135.202 43.5225 134.798 42.7133 134.189 42.0703C133.581 41.4274 132.795 40.9796 131.932 40.7837C131.069 40.5878 130.167 40.6526 129.34 40.97C128.782 41.1622 128.268 41.467 127.832 41.8654C127.396 42.2638 127.047 42.7473 126.805 43.2862C126.563 43.8251 126.434 44.4079 126.427 44.9985C126.419 45.5891 126.532 46.175 126.76 46.72ZM127.64 46.38C127.355 45.7344 127.27 45.0181 127.395 44.3237C127.521 43.6292 127.852 42.9883 128.346 42.4839C128.84 41.9795 129.473 41.6347 130.165 41.4939C130.857 41.3532 131.574 41.423 132.226 41.6943C132.878 41.9657 133.433 42.4261 133.82 43.0162C134.207 43.6063 134.409 44.2989 134.398 45.0046C134.388 45.7104 134.166 46.3968 133.762 46.9753C133.358 47.5538 132.789 47.9978 132.13 48.25C131.714 48.4347 131.265 48.5326 130.81 48.5379C130.355 48.5432 129.903 48.4556 129.483 48.2806C129.063 48.1056 128.683 47.8468 128.366 47.5201C128.049 47.1933 127.802 46.8054 127.64 46.38Z" fill="#374530"/>
<path fill-rule="evenodd" clip-rule="evenodd" d="M129.51 53.55L129.73 54.55L133.45 53.7L133.74 54.96L130.54 58.06L130.81 59.26L134.09 56.04C134.243 56.5958 134.606 57.0704 135.102 57.3634C135.599 57.6564 136.19 57.7449 136.75 57.61C138.75 57.14 138.64 55.39 138.27 53.79L137.79 51.67L129.51 53.57V53.55ZM137.1 52.84L137.42 54.22C137.64 55.22 137.7 56.22 136.51 56.53C135.14 56.85 134.82 55.43 134.57 54.35L134.37 53.47L137.1 52.84Z" fill="#374530"/>
<path fill-rule="evenodd" clip-rule="evenodd" d="M131.25 61L131.34 62.14L133.49 62.84L133.84 67.07L131.84 68.07L131.93 69.24L140.1 65L140.02 64.05L131.25 61.05V61ZM134.74 66.61L134.46 63.16L138.76 64.58L134.74 66.61Z" fill="#374530"/>
<path d="M128.294 77.8437L128.19 78.6269L140.087 80.1994L140.19 79.4163L128.294 77.8437Z" fill="#374530"/>
<path fill-rule="evenodd" clip-rule="evenodd" d="M129.05 88.75L128.25 91.15C127.75 92.65 127.68 94.46 129.46 95.05C129.958 95.2194 130.502 95.1928 130.982 94.9754C131.461 94.7581 131.839 94.3664 132.04 93.88C132.003 94.3175 132.116 94.7546 132.362 95.1186C132.607 95.4825 132.97 95.7512 133.39 95.88C134.87 96.37 135.82 95.19 136.26 93.88L137.08 91.42L129.02 88.74L129.05 88.75ZM135.9 92.09L135.43 93.52C135.14 94.38 134.62 95.17 133.63 94.84C132.64 94.51 132.63 93.47 132.93 92.57L133.37 91.25L135.9 92.09ZM132.49 91L131.94 92.64C131.62 93.64 130.94 94.45 129.83 94.07C128.72 93.69 128.77 92.59 129.08 91.66L129.62 90.04L132.49 91Z" fill="#374530"/>
<path fill-rule="evenodd" clip-rule="evenodd" d="M123.79 100.38C123.344 101.145 123.136 102.026 123.191 102.91C123.246 103.794 123.563 104.641 124.1 105.345C124.638 106.049 125.373 106.577 126.211 106.862C127.05 107.148 127.954 107.178 128.81 106.948C129.665 106.719 130.433 106.241 131.016 105.574C131.6 104.908 131.972 104.083 132.085 103.204C132.199 102.326 132.049 101.434 131.655 100.641C131.26 99.8475 130.639 99.1895 129.87 98.75C129.369 98.4382 128.809 98.2325 128.226 98.1459C127.642 98.0592 127.047 98.0933 126.477 98.2461C125.907 98.3989 125.374 98.6672 124.912 99.0343C124.45 99.4013 124.068 99.8594 123.79 100.38ZM124.6 100.85C124.919 100.22 125.419 99.7007 126.036 99.3581C126.653 99.0155 127.358 98.8656 128.061 98.9279C128.764 98.9901 129.432 99.2616 129.979 99.7074C130.526 100.153 130.927 100.753 131.13 101.428C131.334 102.104 131.329 102.825 131.118 103.499C130.908 104.172 130.5 104.767 129.947 105.207C129.395 105.646 128.724 105.91 128.02 105.964C127.317 106.018 126.613 105.86 126 105.51C125.594 105.304 125.235 105.018 124.943 104.669C124.651 104.32 124.433 103.916 124.302 103.48C124.171 103.044 124.13 102.586 124.181 102.134C124.232 101.682 124.375 101.245 124.6 100.85Z" fill="#374530"/>
<path fill-rule="evenodd" clip-rule="evenodd" d="M123.14 116.43L127.25 111.23L126.52 110.65L124.78 112.85L118.85 108.16L118.22 108.96L124.15 113.65L122.41 115.85L123.14 116.43Z" fill="#374530"/>
<path fill-rule="evenodd" clip-rule="evenodd" d="M116.29 111.54L115.46 112.32L116.25 114.44L113.16 117.35L111.1 116.42L110.24 117.23L118.69 120.94L119.38 120.29L116.29 111.54ZM114.08 117.77L116.61 115.39L118.18 119.64L114.1 117.75L114.08 117.77ZM120.87 119.72L120.2 120.34L120.36 121.87L118.83 121.63L118.12 122.3L120.29 122.64L121.08 121.89L120.87 119.72Z" fill="#374530"/>
<path fill-rule="evenodd" clip-rule="evenodd" d="M108.39 118.8L107.57 119.39L111.7 125.11L111.68 125.13L103.57 122.28L102.54 123.03L107.51 129.92L108.32 129.32L104.19 123.61L104.21 123.59L112.33 126.43L113.36 125.69L108.39 118.8Z" fill="#374530"/>
<path d="M99.4623 124.573L98.5647 125.036L102.457 132.581L103.355 132.118L99.4623 124.573Z" fill="#374530"/>
<path fill-rule="evenodd" clip-rule="evenodd" d="M91.8001 135.9C92.2964 136.18 92.8509 136.342 93.4201 136.371C93.9893 136.401 94.5576 136.298 95.0801 136.07C96.1239 135.602 96.9486 134.751 97.3842 133.694C97.8199 132.636 97.8335 131.451 97.4221 130.384C97.0108 129.317 96.2058 128.447 95.173 127.956C94.1402 127.464 92.9581 127.387 91.8701 127.74C91.2833 127.929 90.7519 128.26 90.3229 128.703C89.8939 129.146 89.5805 129.687 89.4102 130.28L90.3401 130.6C90.4708 130.142 90.7085 129.722 91.0337 129.374C91.3589 129.026 91.7621 128.761 92.2101 128.6C92.6312 128.449 93.0784 128.384 93.525 128.41C93.9716 128.436 94.4083 128.552 94.809 128.751C95.2097 128.95 95.5661 129.228 95.8567 129.568C96.1473 129.908 96.3661 130.303 96.5002 130.73C96.6787 131.138 96.7747 131.576 96.7828 132.021C96.7908 132.466 96.7107 132.908 96.5471 133.322C96.3835 133.735 96.1396 134.113 95.8295 134.432C95.5193 134.75 95.1491 135.005 94.7401 135.18C94.3607 135.336 93.9496 135.399 93.541 135.364C93.1323 135.33 92.7378 135.198 92.3902 134.98L91.8001 135.9Z" fill="#374530"/>
<path fill-rule="evenodd" clip-rule="evenodd" d="M87.3002 129.59L86.1902 129.85L85.8002 132.08L81.6602 133.02L80.3502 131.18L79.2102 131.45L84.6202 138.92L85.5502 138.71L87.3002 129.59ZM82.2402 133.85L85.6202 133.08L84.8402 137.54L82.2402 133.85Z" fill="#374530"/>
<path d="M68.4618 127.614L68.1018 139.614L68.8918 139.638L69.2518 127.638L68.4618 127.614Z" fill="#374530"/>
<path d="M45.8901 71.77C45.9103 78.0428 48.323 84.0716 52.6361 88.6263C56.9493 93.181 62.8377 95.9184 69.1001 96.28V100.28C82.4301 100.28 94.9801 89.37 94.9801 75.71V41.51C82.0901 39.38 69.1001 41.51 62.3201 48.38" stroke="#374530" stroke-width="1.31" stroke-miterlimit="22.93"/>
<path d="M48.77 70.36C54.4396 71.2641 59.6011 74.1601 63.3273 78.5278C67.0535 82.8956 69.1003 88.4488 69.1 94.19C69.1 94.88 69.1 95.58 69.01 96.27" stroke="#374530" stroke-width="1.31" stroke-miterlimit="22.93"/>
<path d="M95.0001 68.84V41.51C71.0001 46.27 69.1201 60.9 69.1201 74.56V96.24" stroke="#374530" stroke-width="1.31" stroke-miterlimit="22.93"/>
<path d="M45.8901 71.77V41.51C61.9501 44.7 68.1101 52.33 70.4201 61.12" stroke="#374530" stroke-width="1.31" stroke-miterlimit="22.93"/>
<path d="M69.1001 83.17C76.0565 82.8863 82.6344 79.9265 87.4605 74.9085C92.2866 69.8905 94.9878 63.2022 95.0001 56.24C95.0001 55.47 95.0001 54.69 94.9001 53.92" stroke="#374530" stroke-width="1.31" stroke-miterlimit="22.93"/>
</svg>
