<svg xmlns="http://www.w3.org/2000/svg" viewBox="0 0 595.28 396.85"><defs><style>.cls-1{fill:#b2c6b8;}.cls-2,.cls-3{fill:#374530;}.cls-2,.cls-4,.cls-5{fill-rule:evenodd;}.cls-4,.cls-5{fill:none;stroke:#374530;stroke-miterlimit:22.93;}.cls-4{stroke-width:1.31px;}.cls-5{stroke-width:1.31px;}</style></defs><title>Artboard 12</title><g id="Camada_1-12" data-name="Camada 1"><circle class="cls-1" cx="297.32" cy="198.36" r="111.96"/><path class="cls-2" d="M284.84,258.6l-2.47-.57c-1.53-.36-3.34-.26-3.76,1.57a2.06,2.06,0,0,0,1.4,2.46v0a1.93,1.93,0,0,0-1.89,1.53c-.35,1.52.91,2.35,2.28,2.67l2.53.58,1.91-8.27Zm-2.68,7.13-1.47-.33c-.88-.21-1.72-.65-1.48-1.66s1.27-1.13,2.19-.91l1.35.31-.59,2.59Zm.8-3.5-1.68-.39c-1-.23-1.89-.81-1.63-2s1.38-1.19,2.34-1l1.65.38Z"/><polygon class="cls-2" points="276.32 256.19 271.14 254.18 270.8 255.06 275.04 256.69 273.95 259.51 270.18 258.06 269.84 258.93 273.62 260.39 272.66 262.87 268.62 261.31 268.28 262.19 273.26 264.11 276.32 256.19"/><polygon class="cls-2" points="268.63 252.77 264.38 250.34 263.92 251.15 267.29 253.08 263.54 259.64 264.41 260.14 268.63 252.77"/><path class="cls-2" d="M263.13,249.64l-.89-.71-2,1.09-3.33-2.63.62-2.18-.93-.72-2.44,8.9.75.59,8.2-4.34Zm-6.48-1.28,2.71,2.15-4,2.18h0Z"/><polygon class="cls-2" points="250.31 237.93 249.68 237.14 246.69 239.5 244.24 236.39 243.5 236.97 245.95 240.08 243.75 241.82 241.11 238.47 240.38 239.06 243.64 243.19 250.31 237.93"/><polygon class="cls-2" points="245.57 231.52 243.14 227.27 242.33 227.74 244.25 231.11 237.69 234.86 238.19 235.73 245.57 231.52"/><path class="cls-2" d="M240.71,221.42a4.46,4.46,0,1,0-2.58,5.75,4.32,4.32,0,0,0,2.58-5.75Zm-.88.34a3.53,3.53,0,1,1-4.49-1.87A3.35,3.35,0,0,1,239.83,221.76Z"/><path class="cls-2" d="M238.08,214.56l-.22-1-3.72.86-.29-1.27,3.2-3.09-.27-1.21-3.28,3.23a2.2,2.2,0,0,0-2.66-1.57c-2,.46-1.89,2.21-1.52,3.81l.48,2.12,8.28-1.89Zm-7.59.7-.32-1.38c-.22-1-.28-2,.91-2.31,1.37-.31,1.7,1.1,1.95,2.19l.2.88Z"/><path class="cls-2" d="M236.47,207.07l-.09-1.13-2.15-.71-.35-4.23,2-1-.09-1.17-8.18,4.29.08.94,8.77,3ZM233,201.46l.28,3.46L229,203.5v0Z"/><rect class="cls-3" x="233.28" y="183.05" width="0.79" height="12" transform="matrix(0.13, -0.99, 0.99, 0.13, 15.61, 395.92)"/><path class="cls-2" d="M238.91,179.34l.91-2.37c.57-1.46.73-3.27-1-3.94a2.09,2.09,0,0,0-2.64,1h0a1.93,1.93,0,0,0-1.25-2.08c-1.46-.56-2.46.57-3,1.88l-.93,2.42,7.92,3.06Zm-6.69-3.67.54-1.4c.33-.85.89-1.61,1.86-1.23s.93,1.41.59,2.3l-.5,1.29-2.49-1Zm3.36,1.3.62-1.61c.37-1,1.07-1.76,2.18-1.34s1,1.53.64,2.45l-.62,1.59Z"/><path class="cls-2" d="M244.42,167.81a4.46,4.46,0,1,0-6.08,1.64,4.31,4.31,0,0,0,6.08-1.64Zm-.81-.46a3.53,3.53,0,1,1-1.39-4.67A3.36,3.36,0,0,1,243.61,167.35Z"/><polygon class="cls-2" points="245.17 151.84 241.06 157.03 241.8 157.61 243.54 155.41 249.47 160.1 250.09 159.31 244.16 154.62 245.91 152.42 245.17 151.84"/><path class="cls-2" d="M252.11,156.81l.83-.78-.79-2.12,3.1-2.91,2.05.93.86-.81-8.45-3.71-.69.65,3.09,8.75Zm2.21-6.23L251.8,153l-1.58-4.25h0l4.08,1.89Zm-6.78-2,.66-.63-.16-1.53,1.53.25.71-.67-2.16-.34-.8.75Z"/><polygon class="cls-2" points="260.09 149.64 260.91 149.05 256.78 143.33 256.8 143.31 264.92 146.16 265.95 145.41 260.98 138.53 260.16 139.12 264.29 144.84 264.27 144.85 256.15 142.01 255.12 142.75 260.09 149.64"/><rect class="cls-3" x="267.08" y="135.72" width="1.01" height="8.49" transform="translate(-34.39 138.25) rotate(-27.29)"/><path class="cls-2" d="M276.78,132.72a3.71,3.71,0,0,0-3.28-.17,4.47,4.47,0,0,0,3.21,8.34,3.78,3.78,0,0,0,2.46-2.54l-.93-.33a3,3,0,0,1-1.87,2,3.3,3.3,0,0,1-4.29-2.13,3.38,3.38,0,0,1,1.76-4.45,2.61,2.61,0,0,1,2.35.2Z"/><path class="cls-2" d="M281.28,139l1.12-.2.49-2.22,4.18-.75,1.22,1.9,1.16-.21-5.06-7.72-.93.17-2.18,9Zm5.25-4-3.41.61,1-4.42h0Z"/><rect class="cls-3" x="292.92" y="133.71" width="12" height="0.79" transform="translate(154.72 428.29) rotate(-88.05)"/><path class="cls-2" d="M309.11,138.15l2.47.57c1.53.35,3.34.25,3.76-1.57a2.08,2.08,0,0,0-1.4-2.47v0a2,2,0,0,0,1.89-1.54c.34-1.52-.92-2.35-2.28-2.67l-2.53-.58-1.91,8.28Zm2.68-7.14,1.46.34c.89.2,1.73.64,1.49,1.66s-1.27,1.12-2.19.91l-1.35-.31.59-2.6Zm-.8,3.51,1.68.39c1,.22,1.89.8,1.63,2s-1.38,1.2-2.34,1l-1.65-.39Z"/><polygon class="cls-2" points="317.67 140.44 322.85 142.44 323.19 141.57 318.95 139.93 320.03 137.11 323.8 138.56 324.14 137.69 320.37 136.24 321.33 133.75 325.37 135.31 325.71 134.44 320.73 132.52 317.67 140.44"/><polygon class="cls-2" points="325.41 143.74 329.66 146.17 330.12 145.36 326.75 143.43 330.5 136.87 329.63 136.37 325.41 143.74"/><path class="cls-2" d="M331,146.77l.89.71,2-1.1,3.32,2.64-.61,2.17.92.73,2.44-8.9-.75-.59-8.2,4.34Zm6.48,1.28-2.71-2.15,4-2.18h0Z"/><polygon class="cls-2" points="343.95 158.33 344.57 159.13 347.57 156.76 350.02 159.87 350.75 159.29 348.3 156.18 350.5 154.44 353.14 157.79 353.88 157.21 350.62 153.07 343.95 158.33"/><polygon class="cls-2" points="348.69 164.73 351.31 168.87 352.1 168.37 350.02 165.08 356.42 161.05 355.88 160.2 348.69 164.73"/><path class="cls-2" d="M353.76,174.72a4.47,4.47,0,1,0,2.58-5.75,4.32,4.32,0,0,0-2.58,5.75Zm.88-.34a3.53,3.53,0,1,1,4.49,1.87A3.35,3.35,0,0,1,354.64,174.38Z"/><path class="cls-2" d="M356.51,181.55l.22,1,3.72-.85.29,1.26-3.2,3.1.27,1.2,3.28-3.22a2.22,2.22,0,0,0,2.66,1.57c2-.47,1.89-2.22,1.52-3.82l-.48-2.12-8.28,1.9Zm7.59-.71.32,1.38c.22,1,.28,2-.91,2.31-1.37.32-1.69-1.1-1.94-2.18l-.2-.88Z"/><path class="cls-2" d="M358.25,189l.09,1.14,2.15.7.35,4.23-2,1,.09,1.17L367.1,193l-.08-.95-8.77-3Zm3.49,5.61-.28-3.45,4.3,1.42v0Z"/><rect class="cls-3" x="360.82" y="201.04" width="0.79" height="12" transform="translate(108.6 537.99) rotate(-82.47)"/><path class="cls-2" d="M356.05,216.75l-.8,2.4c-.5,1.5-.57,3.31,1.21,3.9a2.07,2.07,0,0,0,2.58-1.17h0a1.92,1.92,0,0,0,1.35,2c1.48.49,2.43-.69,2.87-2l.82-2.46-8.06-2.68Zm6.85,3.34-.47,1.43c-.29.86-.81,1.65-1.8,1.32s-1-1.37-.7-2.27l.44-1.32,2.53.84ZM359.49,219l-.55,1.64c-.32,1-1,1.81-2.11,1.43s-1.06-1.48-.75-2.41l.54-1.62Z"/><path class="cls-2" d="M350.79,228.38a4.47,4.47,0,1,0,6.08-1.63,4.31,4.31,0,0,0-6.08,1.63Zm.81.47a3.53,3.53,0,1,1,1.4,4.66A3.36,3.36,0,0,1,351.6,228.85Z"/><polygon class="cls-2" points="350.14 244.43 354.25 239.23 353.52 238.65 351.78 240.85 345.85 236.16 345.22 236.96 351.15 241.65 349.41 243.85 350.14 244.43"/><path class="cls-2" d="M343.29,239.54l-.83.78.79,2.12-3.09,2.91-2.06-.93-.86.81,8.45,3.71.69-.65-3.09-8.75Zm-2.21,6.23,2.53-2.38,1.57,4.25,0,0-4.08-1.89Zm6.79,1.95-.67.62.16,1.53-1.53-.24-.71.67,2.17.34.79-.75Z"/><polygon class="cls-2" points="335.39 246.8 334.57 247.39 338.7 253.11 338.68 253.13 330.57 250.28 329.54 251.03 334.51 257.92 335.32 257.32 331.19 251.61 331.21 251.59 339.33 254.43 340.36 253.69 335.39 246.8"/><rect class="cls-3" x="327.46" y="252.33" width="1.01" height="8.49" transform="translate(-81.14 178.93) rotate(-27.29)"/><path class="cls-2" d="M318.8,263.9a3.68,3.68,0,0,0,3.28.17,4.47,4.47,0,0,0-3.21-8.33,3.76,3.76,0,0,0-2.46,2.54l.93.32a3,3,0,0,1,1.87-2,3.32,3.32,0,0,1,4.29,2.13,3.37,3.37,0,0,1-1.76,4.45,2.58,2.58,0,0,1-2.35-.2Z"/><path class="cls-2" d="M314.3,257.59l-1.11.26-.39,2.23-4.14.94-1.31-1.84-1.14.27,5.41,7.47.93-.21,1.75-9.12Zm-5.06,4.26,3.38-.77-.78,4.46h0Z"/><rect class="cls-3" x="290.72" y="262.46" width="12" height="0.79" transform="matrix(0.03, -1, 1, 0.03, 23.92, 550.46)"/><path class="cls-4" d="M272.89,199.77a24.63,24.63,0,0,0,23.21,24.51v4c13.33,0,25.88-10.91,25.88-24.57V169.51c-12.89-2.13-25.88,0-32.66,6.87"/><path class="cls-5" d="M275.77,198.36a24.13,24.13,0,0,1,20.33,23.83c0,.69,0,1.39-.09,2.08"/><path class="cls-5" d="M322,196.84V169.51c-24,4.76-25.88,19.39-25.88,33.05v21.68"/><path class="cls-5" d="M272.89,199.77V169.51c16.06,3.19,22.22,10.82,24.53,19.61"/><path class="cls-4" d="M296.1,211.17A27,27,0,0,0,322,184.24c0-.77,0-1.55-.1-2.32"/></g></svg>