<svg width="120" height="120" viewBox="0 0 120 120" fill="none" xmlns="http://www.w3.org/2000/svg">
<circle cx="60" cy="60" r="60" fill="#D4ECDB"/>
<path fill-rule="evenodd" clip-rule="evenodd" d="M51.0738 100.591L49.4863 100.216C48.503 99.9798 47.3397 100.046 47.0697 101.248C46.9893 101.584 47.0377 101.939 47.2051 102.24C47.3724 102.54 47.6459 102.763 47.9695 102.865C47.685 102.865 47.409 102.964 47.1878 103.147C46.9666 103.331 46.8138 103.586 46.7548 103.87C46.5299 104.869 47.3397 105.414 48.2202 105.625L49.8462 106.006L51.0738 100.571V100.591ZM49.3513 105.276L48.4066 105.06C47.841 104.922 47.3011 104.632 47.4554 103.969C47.6096 103.305 48.2716 103.226 48.8629 103.371L49.7305 103.574L49.3513 105.276ZM49.8655 102.976L48.7857 102.72C48.143 102.569 47.571 102.188 47.7381 101.406C47.9052 100.624 48.6251 100.624 49.2421 100.749L50.3025 100.998L49.8655 102.976Z" fill="#374530"/>
<path fill-rule="evenodd" clip-rule="evenodd" d="M45.598 99.0072L42.2688 97.6863L42.0503 98.2646L44.7753 99.3357L44.0748 101.189L41.6518 100.236L41.4333 100.808L43.8627 101.767L43.2457 103.397L40.6492 102.372L40.4307 102.95L43.6313 104.212L45.598 99.0072Z" fill="#374530"/>
<path fill-rule="evenodd" clip-rule="evenodd" d="M40.6551 96.7598L37.9237 95.163L37.628 95.6953L39.7939 96.9636L37.3838 101.274L37.9429 101.603L40.6551 96.7598Z" fill="#374530"/>
<path fill-rule="evenodd" clip-rule="evenodd" d="M37.1205 94.7028L36.5484 94.2362L35.263 94.9525L33.1229 93.2242L33.5214 91.7916L32.9237 91.3185L31.3555 97.1671L31.8375 97.5548L37.1076 94.7028H37.1205ZM32.9557 93.8616L34.6974 95.2745L32.1267 96.7071L32.9557 93.8616Z" fill="#374530"/>
<path fill-rule="evenodd" clip-rule="evenodd" d="M28.881 87.0077L28.4761 86.4886L26.5545 88.0395L24.9798 85.9957L24.5042 86.3769L26.0789 88.4206L24.6649 89.564L22.9682 87.3626L22.499 87.7503L24.5942 90.4643L28.881 87.0077Z" fill="#374530"/>
<path fill-rule="evenodd" clip-rule="evenodd" d="M25.835 82.7953L24.2732 80.0024L23.7526 80.3113L24.9866 82.5259L20.7705 84.9902L21.0919 85.5619L25.835 82.7953Z" fill="#374530"/>
<path fill-rule="evenodd" clip-rule="evenodd" d="M22.7123 76.1581C22.511 75.616 22.157 75.1475 21.695 74.811C21.233 74.4745 20.6838 74.2859 20.1169 74.2689C19.5501 74.2518 18.991 74.4069 18.5104 74.7151C18.0298 75.0226 17.6493 75.4695 17.4172 75.9985C17.185 76.5275 17.1116 77.115 17.2061 77.6867C17.3007 78.2591 17.559 78.7887 17.9483 79.2106C18.3377 79.6325 18.8406 79.9262 19.3934 80.0557C19.9463 80.1845 20.5243 80.1437 21.0541 79.9367C21.413 79.8106 21.7428 79.6101 22.0231 79.3486C22.3034 79.0864 22.5281 78.769 22.6835 78.4148C22.8389 78.0606 22.9217 77.6775 22.9266 77.2898C22.9316 76.9014 22.8586 76.5163 22.7123 76.1581ZM22.1467 76.3816C22.3301 76.8061 22.3849 77.2766 22.304 77.7327C22.2231 78.1894 22.0103 78.6106 21.693 78.9418C21.3757 79.2737 20.9686 79.4997 20.524 79.5924C20.0795 79.6851 19.6181 79.6391 19.1993 79.461C18.7806 79.2822 18.4237 78.9799 18.1749 78.5922C17.9259 78.2045 17.7964 77.7491 17.8031 77.2852C17.8097 76.8219 17.9522 76.3704 18.2121 75.9906C18.4719 75.6101 18.8373 75.3183 19.261 75.1527C19.5283 75.0311 19.8171 74.9667 20.1096 74.9635C20.4021 74.9602 20.6923 75.0173 20.9623 75.1323C21.2324 75.2473 21.4767 75.4175 21.6803 75.6324C21.884 75.8473 22.0426 76.1023 22.1467 76.3816Z" fill="#374530"/>
<path fill-rule="evenodd" clip-rule="evenodd" d="M21.0201 71.6503L20.8787 70.9931L18.4879 71.5583L18.3015 70.7237L20.3581 68.6931L20.1846 67.8979L18.0765 70.0205C17.9812 69.6532 17.7485 69.3397 17.4286 69.1465C17.1087 68.9533 16.7273 68.8968 16.367 68.9888C15.0816 69.2911 15.1523 70.4411 15.3901 71.4925L15.6986 72.8857L21.0201 71.6437V71.6503ZM16.142 72.1103L15.9364 71.2034C15.795 70.5463 15.7564 69.8891 16.5212 69.6854C17.4017 69.4817 17.6138 70.4083 17.7745 71.1245L17.903 71.7028L16.142 72.1103Z" fill="#374530"/>
<path fill-rule="evenodd" clip-rule="evenodd" d="M19.9853 66.7281L19.9275 65.9855L18.5457 65.519L18.3207 62.7392L19.6061 62.0821L19.5483 61.3132L14.291 64.1324L14.3424 64.7501L19.9789 66.7215L19.9853 66.7281ZM17.7552 63.0415L17.9351 65.3153L15.1844 64.3821L17.7552 63.0415Z" fill="#374530"/>
<path d="M14.066 54.1877L14 54.7016L21.6353 55.7268L21.7013 55.2129L14.066 54.1877Z" fill="#374530"/>
<path fill-rule="evenodd" clip-rule="evenodd" d="M21.5545 48.5054L22.1393 46.9479C22.5057 45.9885 22.6085 44.7991 21.4966 44.3588C21.1847 44.2316 20.8374 44.2285 20.5233 44.3502C20.2093 44.4719 19.9512 44.7094 19.7999 45.0159C19.8392 44.7285 19.7808 44.436 19.6346 44.1873C19.4884 43.9385 19.2632 43.7485 18.9965 43.6491C18.0582 43.281 17.4155 44.0236 17.0684 44.8845L16.4707 46.4748L21.5609 48.4857L21.5545 48.5054ZM17.2548 46.0936L17.6019 45.1736C17.8139 44.6151 18.1739 44.1156 18.7973 44.3653C19.4207 44.6151 19.395 45.2919 19.1765 45.8768L18.8551 46.7245L17.2548 46.0674V46.0936ZM19.4143 46.9479L19.8127 45.8899C20.0505 45.2328 20.5004 44.7333 21.2138 45.0093C21.9272 45.2853 21.8565 46.0148 21.6252 46.6194L21.2267 47.6642L19.4143 46.9479Z" fill="#374530"/>
<path fill-rule="evenodd" clip-rule="evenodd" d="M25.095 40.9286C25.3787 40.4262 25.5102 39.8491 25.4728 39.2703C25.4354 38.6915 25.2309 38.137 24.8851 37.6772C24.5394 37.2172 24.0679 36.8726 23.5305 36.6868C22.9931 36.5011 22.4138 36.4825 21.866 36.6336C21.3183 36.7847 20.8267 37.0985 20.4535 37.5354C20.0804 37.9723 19.8424 38.5127 19.7697 39.088C19.6971 39.6633 19.793 40.2477 20.0453 40.7672C20.2977 41.2867 20.6952 41.718 21.1874 42.0063C21.5099 42.211 21.87 42.3458 22.2454 42.4022C22.6208 42.4588 23.0036 42.4358 23.37 42.3347C23.7364 42.2336 24.0786 42.0567 24.3753 41.8148C24.6721 41.5729 24.9171 41.2713 25.095 40.9286ZM24.5745 40.6263C24.3682 41.0391 24.0458 41.3791 23.6487 41.6027C23.2516 41.8263 22.7982 41.9232 22.3468 41.8808C21.8954 41.8384 21.4668 41.6587 21.1162 41.365C20.7656 41.0712 20.5091 40.6768 20.3797 40.2325C20.2504 39.7883 20.2543 39.3147 20.3907 38.8727C20.5271 38.4307 20.7898 38.0406 21.1451 37.7527C21.5004 37.4648 21.9318 37.2924 22.3838 37.2576C22.8359 37.2228 23.2877 37.3272 23.6811 37.5574C23.9422 37.6932 24.1737 37.8819 24.3612 38.1119C24.5487 38.342 24.6886 38.6087 24.7721 38.8958C24.8558 39.1829 24.8813 39.4843 24.8473 39.7818C24.8133 40.0794 24.7205 40.3667 24.5745 40.6263Z" fill="#374530"/>
<path fill-rule="evenodd" clip-rule="evenodd" d="M25.578 30.434L22.9365 33.8446L23.4121 34.2257L24.5304 32.78L28.3416 35.862L28.7401 35.3428L24.9289 32.2608L26.0536 30.8151L25.578 30.434Z" fill="#374530"/>
<path fill-rule="evenodd" clip-rule="evenodd" d="M30.0375 33.6999L30.571 33.1873L30.0632 31.7941L32.0556 29.8818L33.3731 30.493L33.9259 29.9607L28.495 27.5227L28.0516 27.9498L30.0375 33.6999ZM31.4579 29.6058L29.8383 31.1961L28.8228 28.4033L31.445 29.6453L31.4579 29.6058ZM27.1004 28.2916L27.5246 27.8775L27.4217 26.8721L28.4051 27.0364L28.8614 26.5961L27.4731 26.3727L26.959 26.8655L27.1004 28.2916Z" fill="#374530"/>
<path fill-rule="evenodd" clip-rule="evenodd" d="M35.1659 28.9882L35.6929 28.6004L33.0386 24.8416L33.0514 24.8284L38.2701 26.7013L38.9321 26.2084L35.7379 21.6873L35.2109 22.075L37.8652 25.8339L37.8524 25.8404L32.6337 23.9741L31.9717 24.4604L35.1659 28.9882Z" fill="#374530"/>
<path d="M39.0222 19.9893L38.4453 20.2936L40.9471 25.2518L41.524 24.9475L39.0222 19.9893Z" fill="#374530"/>
<path fill-rule="evenodd" clip-rule="evenodd" d="M45.8931 17.8692C45.5737 17.6864 45.2174 17.5813 44.8519 17.5619C44.4863 17.5425 44.1212 17.6094 43.785 17.7575C43.095 18.0523 42.5445 18.6105 42.2507 19.3137C41.9568 20.0168 41.9426 20.8095 42.2113 21.5231C42.4799 22.2367 43.0101 22.8152 43.6892 23.1354C44.3684 23.4557 45.1428 23.4925 45.8481 23.2381C46.2247 23.1128 46.5658 22.8951 46.8413 22.6042C47.1169 22.3133 47.3187 21.9579 47.4292 21.5689L46.8314 21.3521C46.7475 21.653 46.5947 21.9291 46.3857 22.1576C46.1767 22.3862 45.9175 22.5606 45.6296 22.6664C45.3592 22.7677 45.0713 22.8117 44.7837 22.7955C44.4961 22.7794 44.2147 22.7035 43.9567 22.5725C43.6987 22.4416 43.4695 22.2582 43.2831 22.0338C43.0967 21.8092 42.9569 21.5482 42.8724 21.2667C42.7585 20.9987 42.6975 20.7105 42.6928 20.4185C42.688 20.1264 42.7396 19.8363 42.8447 19.5646C42.9498 19.293 43.1062 19.0452 43.3051 18.8355C43.5039 18.6257 43.7413 18.4582 44.0036 18.3424C44.2477 18.2416 44.5117 18.2009 44.7741 18.2237C45.0365 18.2465 45.2899 18.3322 45.5139 18.4738L45.8931 17.8692Z" fill="#374530"/>
<path fill-rule="evenodd" clip-rule="evenodd" d="M48.7852 21.9962L49.505 21.8648L49.8199 20.4059L52.5064 19.913L53.2905 21.1616L54.036 21.0237L50.784 15.9504L50.1862 16.0622L48.7852 21.9765V21.9962ZM52.1593 19.3676L49.9677 19.7685L50.6104 16.8639L52.1593 19.3676Z" fill="#374530"/>
<path d="M59.9985 14.8308L59.7363 22.712L60.2441 22.7296L60.5063 14.8484L59.9985 14.8308Z" fill="#374530"/>
<path fill-rule="evenodd" clip-rule="evenodd" d="M66.6719 21.4376L68.2593 21.8121C69.2427 22.0421 70.406 21.9764 70.6759 20.7804C70.7549 20.4436 70.7061 20.0888 70.539 19.7875C70.3719 19.4862 70.0994 19.261 69.7761 19.1573C70.0595 19.149 70.3321 19.0454 70.5519 18.8624C70.7717 18.6794 70.9259 18.4272 70.9908 18.1452C71.2093 17.1464 70.3995 16.601 69.5255 16.3907L67.8994 16.0095L66.6719 21.4507V21.4376ZM68.3943 16.7455L69.3327 16.969C69.9047 17.1004 70.4445 17.3895 70.2903 18.0598C70.136 18.7301 69.474 18.7958 68.8828 18.6578L68.0151 18.4541L68.3943 16.7455ZM67.8801 19.0521L68.9599 19.3084C69.6026 19.453 70.1746 19.8341 70.0075 20.6227C69.8404 21.4113 69.1206 21.4113 68.5036 21.2798L67.4431 21.0236L67.8801 19.0521Z" fill="#374530"/>
<path fill-rule="evenodd" clip-rule="evenodd" d="M72.1729 22.9424L75.502 24.2567L75.7206 23.685L72.9955 22.6073L73.6896 20.7541L76.1126 21.707L76.3311 21.1352L73.9081 20.1824L74.5251 18.5461L77.1216 19.5712L77.3402 18.9995L74.1395 17.7378L72.1729 22.9424Z" fill="#374530"/>
<path fill-rule="evenodd" clip-rule="evenodd" d="M77.1475 25.111L79.8789 26.7079L80.1746 26.1756L78.0087 24.9073L80.4188 20.5964L79.8597 20.2678L77.1475 25.111Z" fill="#374530"/>
<path fill-rule="evenodd" clip-rule="evenodd" d="M80.7402 27.1021L81.3122 27.5687L82.5976 26.8459L84.7314 28.5807L84.3394 30.0067L84.9306 30.4864L86.4988 24.6378L86.0168 24.2501L80.7467 27.1021H80.7402ZM84.9049 27.9433L83.1632 26.5304L85.734 25.0978L84.9049 27.9433Z" fill="#374530"/>
<path fill-rule="evenodd" clip-rule="evenodd" d="M89.0635 34.6988L89.462 35.2245L91.3901 33.6671L92.9647 35.7108L93.4338 35.3296L91.8592 33.2859L93.2732 32.1425L94.9699 34.3439L95.4455 33.9628L93.3503 31.2422L89.0635 34.6988Z" fill="#374530"/>
<path fill-rule="evenodd" clip-rule="evenodd" d="M92.1104 38.9046L93.7942 41.6252L94.302 41.2966L92.9651 39.1346L97.0784 36.4863L96.7314 35.9277L92.1104 38.9046Z" fill="#374530"/>
<path fill-rule="evenodd" clip-rule="evenodd" d="M95.3676 45.4694C95.5681 46.0138 95.9229 46.4849 96.3856 46.8231C96.8484 47.1613 97.3992 47.3514 97.968 47.3691C98.5367 47.3869 99.0978 47.2317 99.5798 46.9231C100.062 46.6145 100.444 46.1664 100.677 45.6356C100.91 45.1048 100.984 44.5153 100.888 43.9418C100.793 43.3682 100.534 42.8365 100.142 42.414C99.7514 41.9914 99.2463 41.6972 98.6916 41.5684C98.137 41.4397 97.5573 41.4823 97.0258 41.6909C96.6671 41.8172 96.3368 42.0175 96.0566 42.2793C95.7764 42.5411 95.552 42.8589 95.3965 43.213C95.241 43.5671 95.1581 43.9501 95.1536 44.3382C95.1484 44.7263 95.2211 45.1113 95.3676 45.4694ZM95.9332 45.2461C95.75 44.8218 95.6954 44.3511 95.7757 43.8947C95.8567 43.4383 96.0694 43.0172 96.3869 42.6858C96.7044 42.3543 97.1112 42.1277 97.556 42.0352C98.0007 41.9427 98.4616 41.9885 98.8806 42.1669C99.2996 42.3452 99.6563 42.6478 99.9051 43.0356C100.154 43.4234 100.284 43.8785 100.277 44.3422C100.27 44.806 100.127 45.2571 99.8678 45.6373C99.6081 46.0174 99.2424 46.3092 98.8189 46.4749C98.5515 46.5963 98.263 46.6607 97.9705 46.6641C97.6781 46.6676 97.3876 46.6101 97.1177 46.4951C96.8477 46.3801 96.6035 46.21 96.3998 45.9952C96.196 45.7805 96.0373 45.5256 95.9332 45.2461Z" fill="#374530"/>
<path fill-rule="evenodd" clip-rule="evenodd" d="M97.1357 49.9577L97.2771 50.6149L99.668 50.0563L99.8544 50.8844L97.7977 52.9215L97.9713 53.71L100.079 51.594C100.178 51.9593 100.411 52.2712 100.73 52.4638C101.049 52.6563 101.429 52.7144 101.789 52.6257C103.074 52.3169 103.004 51.1669 102.766 50.1154L102.457 48.7223L97.1357 49.9709V49.9577ZM102.014 49.4912L102.22 50.398C102.361 51.0552 102.399 51.7123 101.635 51.916C100.754 52.1263 100.548 51.1932 100.388 50.4835L100.259 49.9052L102.014 49.4912Z" fill="#374530"/>
<path fill-rule="evenodd" clip-rule="evenodd" d="M98.2549 54.8534L98.3127 55.6025L99.6945 56.0625L99.9195 58.8423L98.6341 59.4994L98.6919 60.2683L103.943 57.482L103.891 56.8577L98.2549 54.8863V54.8534ZM100.498 58.54L100.318 56.2728L103.082 57.206L100.498 58.54Z" fill="#374530"/>
<path d="M96.354 65.9222L96.2871 66.4368L103.933 67.4698L104 66.9553L96.354 65.9222Z" fill="#374530"/>
<path fill-rule="evenodd" clip-rule="evenodd" d="M96.8401 73.0891L96.326 74.6662C96.0046 75.652 95.9596 76.8414 97.1036 77.2291C97.4237 77.3402 97.7733 77.3231 98.0818 77.1798C98.3897 77.0372 98.6326 76.7796 98.7618 76.4603C98.738 76.7474 98.8106 77.0353 98.9687 77.2745C99.1262 77.5137 99.3595 77.6898 99.6294 77.7745C100.581 78.0966 101.191 77.3211 101.474 76.4603L102.001 74.8437L96.8208 73.0825L96.8401 73.0891ZM101.243 75.284L100.941 76.2237C100.754 76.7888 100.42 77.308 99.7837 77.0911C99.1474 76.8743 99.141 76.1908 99.3338 75.5994L99.6166 74.732L101.243 75.284ZM99.051 74.5677L98.6975 75.6454C98.4919 76.3025 98.0548 76.8348 97.3414 76.5851C96.628 76.3354 96.6602 75.6125 96.8594 75.0014L97.2065 73.9368L99.051 74.5677Z" fill="#374530"/>
<path fill-rule="evenodd" clip-rule="evenodd" d="M93.4599 80.7319C93.1732 81.2346 93.0396 81.8135 93.0749 82.3945C93.1102 82.9754 93.314 83.532 93.6591 83.9946C94.0049 84.4572 94.4773 84.8042 95.0159 84.9915C95.5551 85.1794 96.1361 85.1992 96.6862 85.048C97.2357 84.8975 97.7293 84.5834 98.104 84.1451C98.4794 83.7074 98.7185 83.1653 98.7911 82.5876C98.8644 82.0107 98.7679 81.4245 98.5147 80.9034C98.2608 80.3823 97.8617 79.9499 97.3675 79.6607C97.0455 79.4557 96.6856 79.321 96.3109 79.2638C95.9356 79.2066 95.5532 79.229 95.1868 79.3295C94.8205 79.4301 94.4779 79.6062 94.181 79.8473C93.8841 80.0885 93.6385 80.3895 93.4599 80.7319ZM93.9805 81.0407C94.1855 80.6267 94.5068 80.2857 94.9034 80.0603C95.2999 79.8349 95.753 79.7369 96.2049 79.7777C96.6567 79.8184 97.086 79.9972 97.4376 80.2896C97.7891 80.5827 98.0468 80.977 98.1773 81.4206C98.3084 81.8648 98.3052 82.3386 98.1696 82.7815C98.0346 83.2238 97.7724 83.6148 97.417 83.9039C97.0622 84.1924 96.631 84.3659 96.1785 84.4014C95.7267 84.4369 95.2742 84.333 94.8802 84.103C94.6193 83.9677 94.3886 83.7797 94.2009 83.5504C94.0132 83.321 93.8731 83.0555 93.7889 82.769C93.7047 82.4825 93.6784 82.1815 93.7112 81.8845C93.744 81.5875 93.8359 81.3003 93.9805 81.0407Z" fill="#374530"/>
<path fill-rule="evenodd" clip-rule="evenodd" d="M93.041 91.2792L95.6825 87.862L95.2133 87.4809L94.095 88.9266L90.2838 85.8446L89.8789 86.3703L93.6901 89.4523L92.5718 90.8981L93.041 91.2792Z" fill="#374530"/>
<path fill-rule="evenodd" clip-rule="evenodd" d="M88.6393 88.0657L88.1059 88.5783L88.6136 89.9714L86.6277 91.8837L85.3037 91.2726L84.751 91.8048L90.1818 94.2429L90.6253 93.8157L88.6393 88.0657ZM87.2189 92.1597L88.845 90.5957L89.854 93.3886L87.2318 92.1466L87.2189 92.1597ZM91.5829 93.4411L91.1523 93.8486L91.2551 94.854L90.2718 94.6963L89.8154 95.1366L91.2101 95.36L91.7178 94.8671L91.5829 93.4411Z" fill="#374530"/>
<path fill-rule="evenodd" clip-rule="evenodd" d="M83.5625 92.8365L83.0355 93.2243L85.6899 96.9831L85.677 96.9963L80.4647 95.1234L79.8027 95.6163L82.997 100.144L83.5176 99.7497L80.8632 95.9974L80.8761 95.9843L86.0948 97.8506L86.7568 97.3643L83.5625 92.8365Z" fill="#374530"/>
<path d="M77.8246 96.6302L77.248 96.9345L79.7494 101.893L80.3266 101.588L77.8246 96.6302Z" fill="#374530"/>
<path fill-rule="evenodd" clip-rule="evenodd" d="M72.8993 104.074C73.2181 104.258 73.5748 104.364 73.9405 104.383C74.3062 104.403 74.6719 104.335 75.0074 104.186C75.6784 103.878 76.2086 103.319 76.4882 102.624C76.7684 101.929 76.7767 101.15 76.5126 100.449C76.2484 99.748 75.7311 99.1762 75.0672 98.8536C74.4033 98.5303 73.6436 98.4797 72.9443 98.7116C72.5671 98.8358 72.2258 99.0533 71.9501 99.3445C71.6743 99.6356 71.4725 99.9911 71.3633 100.381L71.961 100.591C72.0452 100.29 72.1981 100.014 72.407 99.7854C72.6159 99.5567 72.8749 99.3826 73.1628 99.2768C73.4334 99.1776 73.7207 99.1348 74.008 99.1519C74.2953 99.169 74.5755 99.2452 74.8332 99.376C75.0909 99.5068 75.3197 99.6895 75.5068 99.9129C75.6931 100.136 75.8339 100.396 75.92 100.676C76.0351 100.945 76.0968 101.232 76.1019 101.525C76.1071 101.817 76.0556 102.108 75.9502 102.38C75.8448 102.651 75.6886 102.9 75.4888 103.109C75.2895 103.318 75.0517 103.486 74.7889 103.601C74.5453 103.703 74.2811 103.745 74.0183 103.722C73.7554 103.699 73.5022 103.613 73.2785 103.469L72.8993 104.074Z" fill="#374530"/>
<path fill-rule="evenodd" clip-rule="evenodd" d="M70.008 99.9272L69.2946 100.098L69.044 101.564L66.3832 102.181L65.5413 100.972L64.8086 101.15L68.2856 106.058L68.8833 105.92L70.008 99.9272ZM66.756 102.727L68.9283 102.221L68.427 105.152L66.756 102.727Z" fill="#374530"/>
<path d="M57.8993 98.6287L57.668 106.514L58.1757 106.53L58.4071 98.6444L57.8993 98.6287Z" fill="#374530"/>
<path d="M43.3926 61.931C43.4056 66.0533 44.9562 70.0152 47.7282 73.0078C50.5003 76.0012 54.285 77.7998 58.3096 78.0376V80.6662C66.8768 80.6662 74.9427 73.4968 74.9427 64.5201V42.0457C66.6583 40.646 58.3096 42.0457 53.9521 46.5603" stroke="#374530" stroke-width="1.31" stroke-miterlimit="22.93"/>
<path d="M45.2432 61.0044C48.887 61.5985 52.2043 63.5016 54.599 66.372C56.9937 69.2424 58.3093 72.8915 58.3093 76.6642C58.3093 77.1176 58.3093 77.5776 58.2514 78.0311" stroke="#374530" stroke-width="1.31" stroke-miterlimit="22.93"/>
<path d="M74.9563 60.0055V42.0457C59.5315 45.1737 58.3232 54.7877 58.3232 63.7644V78.0113" stroke="#374530" stroke-width="1.31" stroke-miterlimit="22.93"/>
<path d="M43.3926 61.9309V42.0457C53.7143 44.142 57.6733 49.156 59.1579 54.9323" stroke="#374530" stroke-width="1.31" stroke-miterlimit="22.93"/>
<path d="M58.3105 69.4224C62.7812 69.2357 67.0089 67.2912 70.1112 63.9937C73.2128 60.6961 74.9488 56.3004 74.9565 51.7255C74.9565 51.2194 74.9565 50.7068 74.8922 50.2008" stroke="#374530" stroke-width="1.31" stroke-miterlimit="22.93"/>
</svg>
